<?xml version="1.0" standalone="no"?>
<!DOCTYPE svg PUBLIC "-//W3C//DTD SVG 20010904//EN"
 "http://www.w3.org/TR/2001/REC-SVG-20010904/DTD/svg10.dtd">
<svg version="1.0" xmlns="http://www.w3.org/2000/svg"
 width="320.000000pt" height="290.000000pt" viewBox="0 0 320.000000 290.000000"
 preserveAspectRatio="xMidYMid meet">

<g transform="translate(0.000000,290.000000) scale(0.100000,-0.100000)"
fill="#000000" stroke="none">
<path d="M0 1450 l0 -1450 1600 0 1600 0 0 1450 0 1450 -1600 0 -1600 0 0
-1450z m569 132 c54 -27 73 -61 79 -141 l5 -71 -67 0 -66 0 0 54 c0 76 -31
106 -72 69 -16 -14 -18 -34 -18 -195 0 -105 4 -187 10 -199 12 -21 50 -25 68
-7 7 7 12 36 12 65 l0 53 66 0 67 0 -5 -63 c-3 -35 -13 -78 -22 -96 -34 -65
-156 -91 -244 -51 -34 15 -47 29 -65 67 -20 43 -22 64 -22 218 0 141 3 178 18
217 18 47 53 81 92 91 47 12 131 6 164 -11z m941 2 c25 -10 48 -29 62 -53 22
-34 23 -45 23 -243 0 -227 -1 -232 -69 -282 -40 -30 -172 -30 -212 0 -67 49
-69 57 -72 269 -3 177 -2 198 17 240 16 36 29 50 63 65 53 24 133 26 188 4z
m-606 -154 c16 -88 32 -160 35 -160 4 0 17 50 29 112 13 62 28 134 33 160 l11
48 69 0 69 0 0 -82 c0 -46 3 -181 7 -300 l6 -218 -51 0 -52 0 0 169 c0 94 -4
172 -8 175 -4 3 -21 -74 -37 -170 l-29 -174 -42 0 -42 0 -10 48 c-6 26 -20
103 -33 172 -12 69 -25 129 -30 135 -5 5 -9 -68 -9 -173 l0 -182 -52 0 -51 0
6 218 c4 119 7 254 7 300 l0 82 73 0 72 0 29 -160z m1066 110 l0 -50 -45 0
-45 0 0 -250 0 -250 -65 0 -65 0 0 250 0 250 -45 0 -45 0 0 50 0 50 155 0 155
0 0 -50z m340 32 c49 -24 72 -76 72 -158 -1 -113 -52 -164 -164 -164 l-58 0 0
-130 0 -130 -70 0 -70 0 0 300 0 300 128 0 c101 0 134 -4 162 -18z m252 -143
l3 -161 71 159 70 158 47 3 47 3 0 -300 0 -301 -55 0 -55 0 -2 171 -3 171 -75
-168 -76 -169 -42 -3 -42 -3 0 300 0 301 55 0 55 0 2 -161z m-1346 -549 c61
-38 69 -72 69 -285 0 -172 -2 -193 -20 -224 -35 -59 -67 -76 -153 -79 -67 -3
-81 -1 -111 20 -70 47 -76 70 -76 283 0 164 2 195 18 227 20 40 55 67 102 79
46 12 135 1 171 -21z m1316 3 c17 -10 40 -31 52 -46 19 -26 21 -43 24 -225 3
-189 2 -199 -20 -241 -31 -59 -73 -81 -158 -81 -79 0 -126 21 -155 70 -18 31
-20 56 -23 214 -4 195 4 250 43 286 54 51 170 62 237 23z m-1987 6 c64 -16 97
-56 103 -124 5 -61 -10 -110 -39 -126 -25 -13 -24 -24 4 -36 58 -27 77 -177
31 -240 -38 -52 -76 -63 -216 -63 l-128 0 0 300 0 300 101 0 c55 0 120 -5 144
-11z m955 -109 c0 -66 4 -120 8 -120 5 0 29 54 52 120 l44 120 72 0 72 0 -54
-137 c-30 -76 -53 -147 -51 -158 3 -11 27 -84 55 -162 l51 -143 -74 0 -74 0
-43 130 c-23 72 -46 130 -50 130 -4 0 -8 -58 -8 -130 l0 -130 -65 0 -65 0 0
300 0 300 65 0 65 0 0 -120z m440 -5 l0 -125 45 0 45 0 0 125 0 126 68 -3 67
-3 3 -297 2 -298 -70 0 -70 0 0 130 0 130 -45 0 -45 0 0 -130 0 -130 -70 0
-70 0 0 293 c0 162 3 297 7 300 3 4 35 7 70 7 l63 0 0 -125z"/>
<path d="M1397 1497 c-16 -11 -17 -33 -15 -212 l3 -200 35 0 35 0 3 199 c2
198 -2 226 -32 226 -7 0 -20 -6 -29 -13z"/>
<path d="M2160 1420 l0 -80 34 0 c46 0 66 22 66 73 0 58 -22 87 -66 87 l-34 0
0 -80z"/>
<path d="M1072 798 c-15 -15 -17 -370 -2 -399 13 -23 43 -25 64 -3 13 13 16
45 16 195 0 105 -4 188 -10 200 -12 21 -50 25 -68 7z"/>
<path d="M2396 794 c-12 -31 -7 -389 6 -402 17 -17 43 -15 59 5 19 22 26 310
10 371 -10 37 -15 42 -40 42 -17 0 -31 -7 -35 -16z"/>
<path d="M440 735 l0 -75 28 0 c44 0 63 20 65 69 1 35 -3 47 -22 62 -13 11
-34 19 -47 19 -23 0 -24 -3 -24 -75z"/>
<path d="M440 480 l0 -90 30 0 c46 0 70 31 70 90 0 59 -24 90 -70 90 l-30 0 0
-90z"/>
</g>
</svg>
